<svg width="1318" height="559" viewBox="0 0 1318 559" fill="none" xmlns="http://www.w3.org/2000/svg">
<path d="M0 404.521V171.385L72.6954 125.13V372.78L18.7212 405.064H0V404.521Z" fill="#F6EEF0"/>
<path d="M74.7402 42.1844L211.688 126.41L279.874 81.6413L140.356 0.737183L74.7402 42.1844Z" fill="#F6EEF0"/>
<path d="M149.547 164.897L279.913 247.856L209.29 291.682L149.862 252.793L149.547 164.897Z" fill="#F6EEF0"/>
<path d="M279.874 81.641L149.547 164.897L214.311 205.905L279.9 167.081L279.874 81.641Z" fill="url(#paint0_linear_411_12107)"/>
<path d="M0 171.385V88.6719L74.7406 42.1843L139.753 82.2875L0 171.385Z" fill="url(#paint1_linear_411_12107)"/>
<path d="M279.913 247.857L18.8125 405.064L89.4889 445.167L279.821 330.803L279.913 247.857Z" fill="url(#paint2_linear_411_12107)"/>
<path d="M325.209 334.525V77.2731H440.774V108.459H371.815V186.558H433V217.731H371.815V303.365H440.774V334.538H325.209V334.525Z" fill="#F6EEF0"/>
<path d="M613.629 274.325V290.816C613.629 319.96 595.013 334.525 557.793 334.525H527.68C490.46 334.525 471.844 319.96 471.844 290.816V120.995C471.844 91.8513 490.46 77.2731 527.68 77.2731H557.793C595.013 77.2731 613.629 91.8513 613.629 120.995V150.009H567.023V123.502C567.023 113.473 560.048 108.459 546.139 108.459H536.909C524.599 108.459 518.45 113.473 518.45 123.502V288.309C518.45 298.338 524.599 303.352 536.909 303.352H548.564C560.874 303.352 567.023 298.338 567.023 288.309V274.325H613.629Z" fill="#F6EEF0"/>
<path d="M703.945 334.525C666.385 334.525 647.611 318.616 647.611 286.784V229.621C647.611 197.544 666.228 181.492 703.447 181.492H748.113C785.333 181.492 803.962 197.544 803.962 229.621V286.784C803.962 318.616 785.175 334.525 747.628 334.525H703.945ZM715.115 300.484H738.91C751.22 300.484 757.369 295.004 757.369 284.057V231.999C757.369 221.04 750.421 215.573 736.485 215.573H714.656C701.048 215.573 694.244 221.053 694.244 231.999V284.057C694.231 295.004 701.179 300.484 715.115 300.484Z" fill="#F6EEF0"/>
<path d="M941.894 270.228V184.309H988.501V334.525H941.894L891.866 256.425V334.525H845.26V184.309H891.866L941.894 270.228Z" fill="#F6EEF0"/>
<path d="M669.379 160.205V148.148L700.382 118.868C702.832 116.648 704.631 114.658 705.779 112.897C706.927 111.136 707.693 109.529 708.075 108.074C708.535 106.62 708.764 105.28 708.764 104.055C708.764 100.84 707.654 98.3905 705.434 96.7064C703.291 94.9458 700.114 94.0654 695.904 94.0654C692.536 94.0654 689.397 94.7161 686.488 96.0175C683.656 97.3188 681.244 99.3474 679.254 102.103L665.705 93.3765C668.767 88.7835 673.054 85.1473 678.565 82.468C684.077 79.7888 690.43 78.4491 697.626 78.4491C703.597 78.4491 708.803 79.4443 713.243 81.4346C717.759 83.3484 721.242 86.0659 723.692 89.5872C726.218 93.1086 727.481 97.3188 727.481 102.218C727.481 104.821 727.136 107.424 726.447 110.026C725.835 112.552 724.534 115.232 722.543 118.064C720.63 120.896 717.797 124.073 714.046 127.595L688.325 151.823L684.766 145.048H730.122V160.205H669.379ZM784.876 161.583C778.293 161.583 772.398 159.975 767.193 156.76C761.987 153.469 757.892 148.723 754.906 142.522C751.921 136.321 750.428 128.819 750.428 120.016C750.428 111.213 751.921 103.711 754.906 97.5102C757.892 91.3096 761.987 86.6018 767.193 83.3866C772.398 80.095 778.293 78.4491 784.876 78.4491C791.536 78.4491 797.43 80.095 802.559 83.3866C807.764 86.6018 811.86 91.3096 814.845 97.5102C817.831 103.711 819.324 111.213 819.324 120.016C819.324 128.819 817.831 136.321 814.845 142.522C811.86 148.723 807.764 153.469 802.559 156.76C797.43 159.975 791.536 161.583 784.876 161.583ZM784.876 145.852C788.014 145.852 790.732 144.972 793.028 143.211C795.402 141.45 797.239 138.656 798.54 134.829C799.918 131.001 800.607 126.064 800.607 120.016C800.607 113.969 799.918 109.031 798.54 105.204C797.239 101.376 795.402 98.5819 793.028 96.8213C790.732 95.0606 788.014 94.1803 784.876 94.1803C781.814 94.1803 779.096 95.0606 776.723 96.8213C774.427 98.5819 772.59 101.376 771.212 105.204C769.91 109.031 769.26 113.969 769.26 120.016C769.26 126.064 769.91 131.001 771.212 134.829C772.59 138.656 774.427 141.45 776.723 143.211C779.096 144.972 781.814 145.852 784.876 145.852ZM839.855 160.205V148.148L870.858 118.868C873.308 116.648 875.106 114.658 876.255 112.897C877.403 111.136 878.168 109.529 878.551 108.074C879.011 106.62 879.24 105.28 879.24 104.055C879.24 100.84 878.13 98.3905 875.91 96.7064C873.767 94.9458 870.59 94.0654 866.38 94.0654C863.011 94.0654 859.873 94.7161 856.964 96.0175C854.132 97.3188 851.72 99.3474 849.73 102.103L836.181 93.3765C839.243 88.7835 843.529 85.1473 849.041 82.468C854.553 79.7888 860.906 78.4491 868.102 78.4491C874.073 78.4491 879.278 79.4443 883.718 81.4346C888.235 83.3484 891.718 86.0659 894.168 89.5872C896.694 93.1086 897.957 97.3188 897.957 102.218C897.957 104.821 897.612 107.424 896.923 110.026C896.311 112.552 895.01 115.232 893.019 118.064C891.106 120.896 888.273 124.073 884.522 127.595L858.801 151.823L855.242 145.048H900.598V160.205H839.855ZM918.752 143.326V130.81L956.644 79.827H976.165L939.076 130.81L930.005 128.169H993.274V143.326H918.752ZM962.041 160.205V143.326L962.615 128.169V113.127H980.184V160.205H962.041Z" fill="#06DCF2"/>
<path d="M738.47 464.749C740.651 465.484 742.274 466.693 743.341 468.376C744.408 470.035 744.941 473.946 744.941 480.109C744.941 484.684 744.419 488.239 743.376 490.775C742.334 493.288 740.532 495.208 737.972 496.535C735.412 497.839 732.129 498.491 728.123 498.491C723.572 498.491 719.993 497.732 717.386 496.215C714.802 494.675 713.096 492.802 712.266 490.598C711.46 488.369 711.057 484.518 711.057 479.042V474.491H725.421V483.842C725.421 486.331 725.563 487.919 725.848 488.606C726.156 489.27 726.82 489.602 727.839 489.602C728.953 489.602 729.688 489.175 730.043 488.322C730.399 487.469 730.577 485.241 730.577 481.638V477.656C730.577 475.451 730.328 473.839 729.83 472.82C729.332 471.801 728.598 471.137 727.626 470.829C726.654 470.497 724.769 470.308 721.972 470.26V461.905C725.386 461.905 727.495 461.774 728.301 461.514C729.107 461.253 729.688 460.684 730.043 459.807C730.399 458.93 730.577 457.555 730.577 455.683V452.483C730.577 450.468 730.363 449.141 729.937 448.501C729.534 447.861 728.894 447.541 728.017 447.541C727.021 447.541 726.334 447.884 725.955 448.572C725.599 449.235 725.421 450.669 725.421 452.874V457.603H711.057V452.696C711.057 447.197 712.313 443.487 714.826 441.567C717.338 439.624 721.332 438.652 726.808 438.652C733.658 438.652 738.304 439.991 740.745 442.67C743.187 445.348 744.408 449.069 744.408 453.834C744.408 457.057 743.969 459.392 743.092 460.838C742.215 462.26 740.674 463.564 738.47 464.749ZM796.505 475.487V485.193L792.452 487.753L797.501 497.353H784.239L782.497 494.153C778.041 497.092 773.821 498.562 769.839 498.562C765.667 498.562 762.456 497.175 760.204 494.402C757.952 491.629 756.826 488.286 756.826 484.375C756.826 481.247 757.49 478.793 758.817 477.016C760.145 475.238 762.136 473.792 764.79 472.678C760.998 469.952 759.102 466.266 759.102 461.62C759.102 457.614 760.453 454.391 763.155 451.949C765.857 449.508 769.579 448.287 774.319 448.287C778.586 448.287 781.94 449.484 784.381 451.878C786.846 454.272 788.079 457.318 788.079 461.016C788.079 464.903 786.586 468.352 783.599 471.362L788.683 480.536L796.505 475.487ZM774.355 465.389C775.967 463.28 776.772 461.265 776.772 459.345C776.772 458.515 776.535 457.757 776.061 457.069C775.587 456.382 774.924 456.038 774.07 456.038C773.288 456.038 772.695 456.299 772.293 456.82C771.89 457.342 771.688 458.136 771.688 459.203C771.688 461.431 772.577 463.493 774.355 465.389ZM777.59 487.646L772.933 479.896C771.155 481.507 770.266 483.25 770.266 485.122C770.266 486.473 770.538 487.492 771.084 488.18C771.653 488.844 772.482 489.175 773.572 489.175C774.734 489.175 776.073 488.666 777.59 487.646ZM837.368 439.79V477.407H841.457V487.22H837.368V497.353H823.004V487.22H805.937V477.407L818.346 439.79H837.368ZM823.004 477.407V452.909L816.675 477.407H823.004ZM873.796 439.79H899.147V451.309H888.765V462.225H898.009V473.176H888.765V497.353H873.796V439.79ZM910.818 439.79H935.778V451.309H925.787V462.225H935.138V473.176H925.787V485.833H936.774V497.353H910.818V439.79ZM949.121 439.79H964.054C968.771 439.79 972.338 440.157 974.756 440.892C977.197 441.627 979.165 443.12 980.658 445.372C982.151 447.6 982.898 451.203 982.898 456.18C982.898 459.546 982.365 461.893 981.298 463.22C980.255 464.548 978.181 465.567 975.076 466.278C978.537 467.06 980.883 468.364 982.116 470.189C983.348 471.991 983.965 474.764 983.965 478.509V483.842C983.965 487.729 983.514 490.609 982.614 492.482C981.737 494.355 980.326 495.634 978.383 496.322C976.439 497.009 972.457 497.353 966.436 497.353H949.121V439.79ZM964.09 449.638V462.438C964.73 462.414 965.227 462.403 965.583 462.403C967.053 462.403 967.989 462.047 968.392 461.336C968.795 460.601 968.996 458.527 968.996 455.114C968.996 453.312 968.83 452.056 968.498 451.345C968.167 450.61 967.728 450.148 967.183 449.958C966.661 449.769 965.63 449.662 964.09 449.638ZM964.09 471.398V487.504C966.199 487.433 967.538 487.101 968.107 486.509C968.7 485.916 968.996 484.458 968.996 482.135V476.767C968.996 474.302 968.735 472.808 968.214 472.287C967.692 471.765 966.318 471.469 964.09 471.398Z" fill="#06DCF2"/>
<path d="M295.3 382.513H284.992V378.914C284.992 376.645 284.894 375.225 284.698 374.653C284.502 374.082 284.037 373.796 283.303 373.796C282.666 373.796 282.233 374.041 282.005 374.531C281.776 375.021 281.662 376.277 281.662 378.301V397.325C281.662 399.104 281.776 400.28 282.005 400.851C282.233 401.406 282.691 401.683 283.376 401.683C284.127 401.683 284.633 401.365 284.894 400.728C285.172 400.092 285.31 398.851 285.31 397.007V392.306H283.229V386.283H295.3V407.559H288.811L287.857 404.719C287.155 405.943 286.265 406.866 285.188 407.486C284.127 408.09 282.87 408.392 281.417 408.392C279.687 408.392 278.063 407.976 276.545 407.143C275.043 406.294 273.901 405.25 273.117 404.009C272.334 402.769 271.844 401.471 271.648 400.116C271.453 398.745 271.355 396.697 271.355 393.971V382.194C271.355 378.408 271.559 375.657 271.967 373.943C272.375 372.23 273.542 370.663 275.468 369.243C277.41 367.806 279.916 367.088 282.984 367.088C286.004 367.088 288.509 367.708 290.501 368.949C292.492 370.189 293.79 371.666 294.394 373.38C294.998 375.078 295.3 377.551 295.3 380.799V382.513ZM304.831 367.92H322.018V375.853H315.138V383.37H321.577V390.91H315.138V399.627H322.704V407.559H304.831V367.92ZM354.221 367.92V407.559H345.186L339.824 389.539V407.559H331.206V367.92H339.824L345.603 385.769V367.92H354.221ZM363.899 367.92H381.086V375.853H374.206V383.37H380.645V390.91H374.206V399.627H381.772V407.559H363.899V367.92ZM412.114 379.917H402.541V376.979C402.541 375.608 402.418 374.735 402.173 374.36C401.928 373.984 401.52 373.796 400.949 373.796C400.329 373.796 399.856 374.049 399.529 374.555C399.219 375.061 399.064 375.829 399.064 376.857C399.064 378.179 399.243 379.175 399.603 379.844C399.945 380.513 400.916 381.321 402.516 382.268C407.103 384.994 409.992 387.23 411.183 388.976C412.375 390.723 412.971 393.538 412.971 397.423C412.971 400.247 412.636 402.328 411.967 403.666C411.314 405.005 410.041 406.131 408.147 407.045C406.254 407.943 404.05 408.392 401.537 408.392C398.778 408.392 396.42 407.869 394.461 406.825C392.519 405.78 391.245 404.45 390.642 402.834C390.038 401.218 389.736 398.925 389.736 395.954V393.359H399.309V398.182C399.309 399.667 399.439 400.622 399.7 401.047C399.978 401.471 400.459 401.683 401.145 401.683C401.831 401.683 402.337 401.414 402.663 400.875C403.006 400.337 403.177 399.537 403.177 398.476C403.177 396.142 402.859 394.616 402.222 393.897C401.569 393.179 399.962 391.98 397.399 390.298C394.836 388.601 393.139 387.369 392.306 386.601C391.474 385.834 390.78 384.773 390.225 383.419C389.687 382.064 389.417 380.334 389.417 378.228C389.417 375.192 389.801 372.972 390.568 371.568C391.352 370.165 392.608 369.071 394.339 368.288C396.069 367.488 398.158 367.088 400.606 367.088C403.283 367.088 405.56 367.521 407.437 368.386C409.331 369.251 410.579 370.344 411.183 371.666C411.804 372.972 412.114 375.2 412.114 378.35V379.917ZM432.05 367.92V407.559H421.743V367.92H432.05ZM463.543 379.917H453.97V376.979C453.97 375.608 453.847 374.735 453.603 374.36C453.358 373.984 452.95 373.796 452.378 373.796C451.758 373.796 451.285 374.049 450.958 374.555C450.648 375.061 450.493 375.829 450.493 376.857C450.493 378.179 450.673 379.175 451.032 379.844C451.375 380.513 452.346 381.321 453.945 382.268C458.532 384.994 461.421 387.23 462.612 388.976C463.804 390.723 464.4 393.538 464.4 397.423C464.4 400.247 464.065 402.328 463.396 403.666C462.743 405.005 461.47 406.131 459.577 407.045C457.683 407.943 455.48 408.392 452.966 408.392C450.207 408.392 447.849 407.869 445.89 406.825C443.948 405.78 442.675 404.45 442.071 402.834C441.467 401.218 441.165 398.925 441.165 395.954V393.359H450.738V398.182C450.738 399.667 450.869 400.622 451.13 401.047C451.407 401.471 451.889 401.683 452.574 401.683C453.26 401.683 453.766 401.414 454.092 400.875C454.435 400.337 454.606 399.537 454.606 398.476C454.606 396.142 454.288 394.616 453.651 393.897C452.999 393.179 451.391 391.98 448.828 390.298C446.266 388.601 444.568 387.369 443.736 386.601C442.903 385.834 442.209 384.773 441.655 383.419C441.116 382.064 440.847 380.334 440.847 378.228C440.847 375.192 441.23 372.972 441.997 371.568C442.781 370.165 444.038 369.071 445.768 368.288C447.498 367.488 449.587 367.088 452.036 367.088C454.712 367.088 456.989 367.521 458.866 368.386C460.76 369.251 462.009 370.344 462.612 371.666C463.233 372.972 463.543 375.2 463.543 378.35V379.917ZM526.332 367.92L521.754 407.559H508.876C507.7 401.471 506.664 394.55 505.766 386.797C505.358 390.111 504.403 397.031 502.902 407.559H490.097L485.494 367.92H495.508L496.56 381.754L497.638 395.097C498.013 388.193 498.96 379.134 500.478 367.92H511.202C511.349 369.079 511.724 373.437 512.328 380.995L513.454 396.052C514.025 386.471 514.98 377.094 516.319 367.92H526.332ZM551.215 367.92L557.115 407.559H546.563L546.049 400.435H542.352L541.739 407.559H531.065L536.304 367.92H551.215ZM545.755 393.408C545.232 388.919 544.71 383.378 544.188 376.783C543.143 384.357 542.49 389.899 542.229 393.408H545.755ZM587.751 367.92L582.511 407.559H566.866L560.917 367.92H571.788C573.045 378.84 573.942 388.07 574.481 395.611C575.02 387.989 575.583 381.215 576.17 375.29L576.88 367.92H587.751ZM595.029 367.92H612.217V375.853H605.337V383.37H611.776V390.91H605.337V399.627H612.902V407.559H595.029V367.92ZM659.337 391.131C659.337 395.114 659.239 397.937 659.043 399.602C658.864 401.251 658.276 402.761 657.28 404.132C656.301 405.503 654.971 406.555 653.29 407.29C651.608 408.025 649.65 408.392 647.414 408.392C645.292 408.392 643.382 408.049 641.684 407.363C640.003 406.662 638.648 405.617 637.62 404.23C636.592 402.842 635.98 401.332 635.784 399.7C635.588 398.068 635.49 395.211 635.49 391.131V384.349C635.49 380.366 635.58 377.551 635.759 375.902C635.955 374.237 636.543 372.719 637.522 371.348C638.518 369.977 639.856 368.924 641.537 368.19C643.219 367.455 645.177 367.088 647.414 367.088C649.535 367.088 651.437 367.439 653.118 368.141C654.816 368.826 656.179 369.863 657.207 371.25C658.235 372.638 658.847 374.147 659.043 375.78C659.239 377.412 659.337 380.268 659.337 384.349V391.131ZM649.029 378.106C649.029 376.261 648.923 375.086 648.711 374.58C648.515 374.058 648.099 373.796 647.462 373.796C646.924 373.796 646.508 374.009 646.214 374.433C645.936 374.841 645.798 376.065 645.798 378.106V396.615C645.798 398.917 645.887 400.337 646.067 400.875C646.263 401.414 646.703 401.683 647.389 401.683C648.091 401.683 648.54 401.373 648.736 400.753C648.932 400.133 649.029 398.655 649.029 396.321V378.106ZM668.721 367.92H686.178V375.853H679.029V383.37H685.394V390.91H679.029V407.559H668.721V367.92ZM718.902 367.92V407.559H708.594V367.92H718.902ZM751.57 367.92V407.559H742.535L737.173 389.539V407.559H728.555V367.92H737.173L742.951 385.769V367.92H751.57ZM784.262 367.92V407.559H775.228L769.866 389.539V407.559H761.247V367.92H769.866L775.644 385.769V367.92H784.262ZM817.493 391.131C817.493 395.114 817.395 397.937 817.199 399.602C817.02 401.251 816.432 402.761 815.437 404.132C814.457 405.503 813.127 406.555 811.446 407.29C809.764 408.025 807.806 408.392 805.57 408.392C803.448 408.392 801.538 408.049 799.84 407.363C798.159 406.662 796.804 405.617 795.776 404.23C794.748 402.842 794.136 401.332 793.94 399.7C793.744 398.068 793.646 395.211 793.646 391.131V384.349C793.646 380.366 793.736 377.551 793.915 375.902C794.111 374.237 794.699 372.719 795.678 371.348C796.674 369.977 798.012 368.924 799.694 368.19C801.375 367.455 803.333 367.088 805.57 367.088C807.692 367.088 809.593 367.439 811.274 368.141C812.972 368.826 814.335 369.863 815.363 371.25C816.391 372.638 817.003 374.147 817.199 375.78C817.395 377.412 817.493 380.268 817.493 384.349V391.131ZM807.186 378.106C807.186 376.261 807.079 375.086 806.867 374.58C806.671 374.058 806.255 373.796 805.619 373.796C805.08 373.796 804.664 374.009 804.37 374.433C804.092 374.841 803.954 376.065 803.954 378.106V396.615C803.954 398.917 804.043 400.337 804.223 400.875C804.419 401.414 804.86 401.683 805.545 401.683C806.247 401.683 806.696 401.373 806.892 400.753C807.088 400.133 807.186 398.655 807.186 396.321V378.106ZM851.361 367.92L846.121 407.559H830.476L824.527 367.92H835.397C836.654 378.84 837.552 388.07 838.091 395.611C838.629 387.989 839.192 381.215 839.78 375.29L840.49 367.92H851.361ZM875.753 367.92L881.654 407.559H871.101L870.587 400.435H866.89L866.278 407.559H855.603L860.843 367.92H875.753ZM870.293 393.408C869.771 388.919 869.249 383.378 868.726 376.783C867.682 384.357 867.029 389.899 866.768 393.408H870.293ZM906.903 367.92V375.853H900.782V407.559H890.475V375.853H884.378V367.92H906.903ZM925.077 367.92V407.559H914.769V367.92H925.077ZM958.283 391.131C958.283 395.114 958.186 397.937 957.99 399.602C957.81 401.251 957.223 402.761 956.227 404.132C955.248 405.503 953.917 406.555 952.236 407.29C950.555 408.025 948.596 408.392 946.36 408.392C944.238 408.392 942.328 408.049 940.631 407.363C938.95 406.662 937.595 405.617 936.567 404.23C935.538 402.842 934.926 401.332 934.73 399.7C934.534 398.068 934.436 395.211 934.436 391.131V384.349C934.436 380.366 934.526 377.551 934.706 375.902C934.902 374.237 935.489 372.719 936.469 371.348C937.464 369.977 938.803 368.924 940.484 368.19C942.165 367.455 944.124 367.088 946.36 367.088C948.482 367.088 950.383 367.439 952.065 368.141C953.762 368.826 955.125 369.863 956.153 371.25C957.182 372.638 957.794 374.147 957.99 375.78C958.186 377.412 958.283 380.268 958.283 384.349V391.131ZM947.976 378.106C947.976 376.261 947.87 375.086 947.658 374.58C947.462 374.058 947.046 373.796 946.409 373.796C945.87 373.796 945.454 374.009 945.16 374.433C944.883 374.841 944.744 376.065 944.744 378.106V396.615C944.744 398.917 944.834 400.337 945.013 400.875C945.209 401.414 945.65 401.683 946.335 401.683C947.037 401.683 947.486 401.373 947.682 400.753C947.878 400.133 947.976 398.655 947.976 396.321V378.106ZM990.682 367.92V407.559H981.648L976.286 389.539V407.559H967.668V367.92H976.286L982.064 385.769V367.92H990.682Z" fill="white"/>
<defs>
<linearGradient id="paint0_linear_411_12107" x1="165.445" y1="191.386" x2="297.995" y2="111.836" gradientUnits="userSpaceOnUse">
<stop offset="0.384" stop-color="#1F50A0"/>
<stop offset="0.8883" stop-color="#4FB9E9"/>
</linearGradient>
<linearGradient id="paint1_linear_411_12107" x1="35.1551" y1="108.133" x2="117.083" y2="56.9584" gradientUnits="userSpaceOnUse">
<stop offset="0.1551" stop-color="#2550A1"/>
<stop offset="1" stop-color="#50B8E9"/>
</linearGradient>
<linearGradient id="paint2_linear_411_12107" x1="35.7935" y1="433.364" x2="297.12" y2="276.528" gradientUnits="userSpaceOnUse">
<stop offset="0.2898" stop-color="#284EA2"/>
<stop offset="0.9583" stop-color="#4FB8E9"/>
</linearGradient>
</defs>
</svg>
