<svg width="989" height="446" viewBox="0 0 989 446" fill="none" xmlns="http://www.w3.org/2000/svg">
<path d="M0 404.521V171.385L72.6954 125.13V372.78L18.7212 405.064H0V404.521Z" fill="#F6EEF0"/>
<path d="M74.7402 42.1844L211.688 126.41L279.874 81.6413L140.356 0.737183L74.7402 42.1844Z" fill="#F6EEF0"/>
<path d="M149.547 164.897L279.913 247.856L209.29 291.682L149.862 252.793L149.547 164.897Z" fill="#F6EEF0"/>
<path d="M279.874 81.641L149.547 164.897L214.311 205.905L279.9 167.081L279.874 81.641Z" fill="url(#paint0_linear_411_12108)"/>
<path d="M0 171.385V88.6719L74.7406 42.1843L139.753 82.2875L0 171.385Z" fill="url(#paint1_linear_411_12108)"/>
<path d="M279.913 247.857L18.8125 405.064L89.4889 445.167L279.821 330.803L279.913 247.857Z" fill="url(#paint2_linear_411_12108)"/>
<path d="M325.209 334.525V77.2731H440.774V108.459H371.815V186.558H433V217.731H371.815V303.365H440.774V334.538H325.209V334.525Z" fill="#F6EEF0"/>
<path d="M613.629 274.325V290.816C613.629 319.96 595.013 334.525 557.793 334.525H527.68C490.46 334.525 471.844 319.96 471.844 290.816V120.995C471.844 91.8513 490.46 77.2731 527.68 77.2731H557.793C595.013 77.2731 613.629 91.8513 613.629 120.995V150.009H567.023V123.502C567.023 113.473 560.048 108.459 546.139 108.459H536.909C524.599 108.459 518.45 113.473 518.45 123.502V288.309C518.45 298.338 524.599 303.352 536.909 303.352H548.564C560.874 303.352 567.023 298.338 567.023 288.309V274.325H613.629Z" fill="#F6EEF0"/>
<path d="M703.945 334.525C666.385 334.525 647.611 318.616 647.611 286.784V229.621C647.611 197.544 666.228 181.492 703.447 181.492H748.113C785.333 181.492 803.962 197.544 803.962 229.621V286.784C803.962 318.616 785.175 334.525 747.628 334.525H703.945ZM715.115 300.484H738.91C751.22 300.484 757.369 295.004 757.369 284.057V231.999C757.369 221.04 750.421 215.573 736.485 215.573H714.656C701.048 215.573 694.244 221.053 694.244 231.999V284.057C694.231 295.004 701.179 300.484 715.115 300.484Z" fill="#F6EEF0"/>
<path d="M941.894 270.228V184.309H988.501V334.525H941.894L891.866 256.425V334.525H845.26V184.309H891.866L941.894 270.228Z" fill="#F6EEF0"/>
<defs>
<linearGradient id="paint0_linear_411_12108" x1="165.445" y1="191.386" x2="297.995" y2="111.836" gradientUnits="userSpaceOnUse">
<stop offset="0.384" stop-color="#1F50A0"/>
<stop offset="0.8883" stop-color="#4FB9E9"/>
</linearGradient>
<linearGradient id="paint1_linear_411_12108" x1="35.1551" y1="108.133" x2="117.083" y2="56.9584" gradientUnits="userSpaceOnUse">
<stop offset="0.1551" stop-color="#2550A1"/>
<stop offset="1" stop-color="#50B8E9"/>
</linearGradient>
<linearGradient id="paint2_linear_411_12108" x1="35.7935" y1="433.364" x2="297.12" y2="276.528" gradientUnits="userSpaceOnUse">
<stop offset="0.2898" stop-color="#284EA2"/>
<stop offset="0.9583" stop-color="#4FB8E9"/>
</linearGradient>
</defs>
</svg>
