<svg width="357" height="220" viewBox="0 0 357 220" fill="none" xmlns="http://www.w3.org/2000/svg">
<path d="M0 199.298V84.6173L26.0787 61.8643V183.684L6.71602 199.565H0V199.298Z" fill="#F6EEF0"/>
<path d="M26.8125 21.0629L75.9411 62.4938L100.402 40.4719L50.3515 0.674805L26.8125 21.0629Z" fill="#F6EEF0"/>
<path d="M53.6484 81.4268L100.416 122.235L75.0804 143.793L53.7613 124.663L53.6484 81.4268Z" fill="#F6EEF0"/>
<path d="M100.402 40.4717L53.6484 81.4258L76.8817 101.598L100.411 82.5002L100.402 40.4717Z" fill="url(#paint0_linear_411_5960)"/>
<path d="M0 84.6171V43.9299L26.8124 21.0625L50.135 40.7894L0 84.6171Z" fill="url(#paint1_linear_411_5960)"/>
<path d="M100.417 122.233L6.75 199.564L32.1044 219.291L100.384 163.035L100.417 122.233Z" fill="url(#paint2_linear_411_5960)"/>
<path d="M116.664 164.866V38.3223H158.122V53.6626H133.384V92.0802H155.333V107.414H133.384V149.538H158.122V164.872H116.664V164.866Z" fill="#F6EEF0"/>
<path d="M220.134 135.253V143.365C220.134 157.701 213.455 164.866 200.103 164.866H189.3C175.948 164.866 169.27 157.701 169.27 143.365V59.8292C169.27 45.4934 175.948 38.3223 189.3 38.3223H200.103C213.455 38.3223 220.134 45.4934 220.134 59.8292V74.1015H203.414V61.0626C203.414 56.1292 200.912 53.6626 195.922 53.6626H192.611C188.195 53.6626 185.989 56.1292 185.989 61.0626V142.132C185.989 147.065 188.195 149.532 192.611 149.532H196.792C201.208 149.532 203.414 147.065 203.414 142.132V135.253H220.134Z" fill="#F6EEF0"/>
<path d="M252.531 164.865C239.057 164.865 232.322 157.04 232.322 141.381V113.263C232.322 97.4837 239.001 89.5879 252.353 89.5879H268.376C281.728 89.5879 288.411 97.4837 288.411 113.263V141.381C288.411 157.04 281.672 164.865 268.202 164.865H252.531ZM256.538 148.12H265.075C269.491 148.12 271.697 145.425 271.697 140.04V114.432C271.697 109.041 269.204 106.352 264.205 106.352H256.374C251.492 106.352 249.051 109.048 249.051 114.432V140.04C249.046 145.425 251.539 148.12 256.538 148.12Z" fill="#F6EEF0"/>
<path d="M337.893 133.237V90.9736H354.613V164.865H337.893L319.946 126.448V164.865H303.227V90.9736H319.946L337.893 133.237Z" fill="#F6EEF0"/>
<path d="M329.594 69.8037V63.714L343.187 38.9082H350.19L336.885 63.714L333.631 62.429H356.328V69.8037H329.594ZM345.123 78.0164V69.8037L345.329 62.429V55.1102H351.632V78.0164H345.123Z" fill="#06DCF2"/>
<path d="M301.289 78.0169V72.1507L312.411 57.9041C313.29 56.824 313.935 55.8556 314.347 54.9989C314.759 54.1423 315.033 53.3601 315.171 52.6524C315.335 51.9448 315.418 51.293 315.418 50.697C315.418 49.1327 315.02 47.9408 314.223 47.1214C313.454 46.2648 312.315 45.8364 310.804 45.8364C309.596 45.8364 308.47 46.153 307.427 46.7862C306.41 47.4194 305.545 48.4064 304.831 49.7473L299.971 45.5012C301.069 43.2665 302.607 41.4973 304.584 40.1937C306.562 38.8901 308.841 38.2383 311.422 38.2383C313.564 38.2383 315.432 38.7225 317.024 39.6909C318.645 40.622 319.894 41.9442 320.773 43.6576C321.679 45.3709 322.132 47.4194 322.132 49.8031C322.132 51.0695 322.009 52.3358 321.762 53.6022C321.542 54.8313 321.075 56.1349 320.361 57.513C319.674 58.8911 318.658 60.4368 317.313 62.1501L308.086 73.9384L306.809 70.6422H323.08V78.0169H301.289Z" fill="#06DCF2"/>
<path d="M281.565 78.6873C279.203 78.6873 277.089 77.9051 275.221 76.3408C273.354 74.7392 271.885 72.43 270.814 69.4131C269.743 66.3962 269.207 62.7461 269.207 58.4628C269.207 54.1795 269.743 50.5294 270.814 47.5125C271.885 44.4956 273.354 42.205 275.221 40.6406C277.089 39.0391 279.203 38.2383 281.565 38.2383C283.954 38.2383 286.068 39.0391 287.908 40.6406C289.776 42.205 291.245 44.4956 292.316 47.5125C293.387 50.5294 293.923 54.1795 293.923 58.4628C293.923 62.7461 293.387 66.3962 292.316 69.4131C291.245 72.43 289.776 74.7392 287.908 76.3408C286.068 77.9051 283.954 78.6873 281.565 78.6873ZM281.565 71.0333C282.691 71.0333 283.666 70.6049 284.489 69.7483C285.341 68.8916 286 67.5322 286.467 65.6699C286.961 63.8076 287.208 61.4052 287.208 58.4628C287.208 55.5204 286.961 53.118 286.467 51.2557C286 49.3934 285.341 48.0339 284.489 47.1773C283.666 46.3206 282.691 45.8923 281.565 45.8923C280.466 45.8923 279.491 46.3206 278.64 47.1773C277.816 48.0339 277.157 49.3934 276.663 51.2557C276.196 53.118 275.963 55.5204 275.963 58.4628C275.963 61.4052 276.196 63.8076 276.663 65.6699C277.157 67.5322 277.816 68.8916 278.64 69.7483C279.491 70.6049 280.466 71.0333 281.565 71.0333Z" fill="#06DCF2"/>
<path d="M240.133 78.0169V72.1507L251.255 57.9041C252.133 56.824 252.779 55.8556 253.191 54.9989C253.603 54.1423 253.877 53.3601 254.014 52.6524C254.179 51.9448 254.262 51.293 254.262 50.697C254.262 49.1327 253.863 47.9408 253.067 47.1214C252.298 46.2648 251.158 45.8364 249.648 45.8364C248.44 45.8364 247.314 46.153 246.27 46.7862C245.254 47.4194 244.389 48.4064 243.675 49.7473L238.814 45.5012C239.913 43.2665 241.451 41.4973 243.428 40.1937C245.405 38.8901 247.685 38.2383 250.266 38.2383C252.408 38.2383 254.275 38.7225 255.868 39.6909C257.488 40.622 258.738 41.9442 259.617 43.6576C260.523 45.3709 260.976 47.4194 260.976 49.8031C260.976 51.0695 260.852 52.3358 260.605 53.6022C260.386 54.8313 259.919 56.1349 259.205 57.513C258.518 58.8911 257.502 60.4368 256.156 62.1501L246.929 73.9384L245.652 70.6422H261.923V78.0169H240.133Z" fill="#06DCF2"/>
<defs>
<linearGradient id="paint0_linear_411_5960" x1="59.3516" y1="94.4555" x2="113.631" y2="70.6983" gradientUnits="userSpaceOnUse">
<stop offset="0.384" stop-color="#1F50A0"/>
<stop offset="0.8883" stop-color="#4FB9E9"/>
</linearGradient>
<linearGradient id="paint1_linear_411_5960" x1="12.6115" y1="53.503" x2="46.448" y2="38.0893" gradientUnits="userSpaceOnUse">
<stop offset="0.1551" stop-color="#2550A1"/>
<stop offset="1" stop-color="#50B8E9"/>
</linearGradient>
<linearGradient id="paint2_linear_411_5960" x1="12.8417" y1="213.485" x2="119.856" y2="166.647" gradientUnits="userSpaceOnUse">
<stop offset="0.2898" stop-color="#284EA2"/>
<stop offset="0.9583" stop-color="#4FB8E9"/>
</linearGradient>
</defs>
</svg>
